<?xml version="1.0" encoding="utf-8"?>
<svg version="1.1" id="Layer_1" x="0px" y="0px" width="100%" viewBox="225.786 59.455 174.219 180.051" enable-background="new 0 0 631 241" xmlns="http://www.w3.org/2000/svg" xmlns:bx="https://boxy-svg.com">
  <defs>
    <bx:grid x="23.61" y="2.213" width="101.088" height="152.786"/>
  </defs>
  <path fill="#2C83EC" opacity="1.000000" stroke="none" d="M 337.206 60.97 C 342.294 61.945 347.108 62.702 351.795 63.95 C 369.116 68.568 383.907 77.455 394.376 90.659 C 389.393 95.456 384.385 100.272 379.376 105.085 C 376.777 107.58 374.085 109.98 371.593 112.583 C 370.119 114.123 369.167 114.178 367.445 112.744 C 362.996 109.02 358.514 105.258 353.64 102.177 C 347.068 98.036 339.647 96.396 331.959 95.463 C 320.241 94.031 309.204 96.086 298.86 101.509 C 284.276 109.156 275.833 121.672 272.958 138.14 C 270.366 153.016 272.323 167.192 280.368 179.997 C 288.145 192.393 299.429 199.523 313.567 202.405 C 324.987 204.73 336.016 203.85 346.936 200.102 C 349.147 199.339 351.466 198.615 353.375 197.318 C 354.453 196.59 355.381 194.73 355.392 193.374 C 355.54 179.148 355.484 164.924 355.484 150.695 C 355.484 149.373 355.484 148.057 355.484 146.55 C 367.466 146.55 379.136 146.55 391.365 146.55 C 391.365 147.777 391.365 149.064 391.365 150.352 C 391.365 170.466 391.229 190.579 391.477 210.684 C 391.529 214.839 390.36 217.552 387.025 219.632 C 374.922 227.175 362.123 232.9 348.097 235.41 C 343.012 236.324 337.895 237.025 332.655 238.085 C 325.324 238.362 318.136 238.362 310.505 238.085 C 309.459 237.511 308.867 236.989 308.24 236.93 C 298.083 236.043 288.546 232.803 279.443 228.371 C 267.794 222.696 257.992 214.519 249.918 204.123 C 243.18 195.453 238.261 185.885 235.608 175.136 C 234.335 169.978 233.227 164.78 232.046 159.603 C 232.046 153.206 232.046 146.818 232.296 139.953 C 232.381 138.096 232.214 136.703 232.046 135.313 C 232.046 134.763 232.046 134.206 232.298 133.291 C 232.867 132.303 233.289 131.714 233.479 131.053 C 234.617 127.038 235.496 122.932 236.84 118.995 C 241.977 103.94 250.501 91.318 262.736 81.354 C 272.314 73.55 282.883 67.784 294.751 64.67 C 300.121 63.261 305.573 62.193 310.988 60.97 C 319.613 60.97 328.24 60.97 337.206 60.97 Z" style=""/>
  <path fill="#FFFFFF" opacity="1.000000" stroke="none" d=" M1.000000,102.428467 C1.234072,103.890610 1.468144,105.781219 1.351108,107.835915 C1.000000,106.285645 1.000000,104.571281 1.000000,102.428467 z"/>
  <g transform="matrix(2.306525, 0, 0, 2.317395, -304.861908, -116.686424)" style="">
    <path fill="#87C232" opacity="1.000000" stroke="none" d="M 282.175 127.105 C 279.231 127.105 276.435 127.128 273.639 127.083 C 273.136 127.075 272.494 126.928 272.158 126.604 C 267.957 122.554 263.798 118.46 259.634 114.372 C 259.509 114.248 259.444 114.066 259.26 113.764 C 267.265 113.764 275.107 113.764 283.154 113.764 C 283.154 115.367 283.154 116.989 283.154 118.61 C 283.154 121.099 283.186 123.588 283.116 126.075 C 283.107 126.424 282.599 126.761 282.175 127.105 Z" style=""/>
  </g>
</svg>