<?xml version="1.0" encoding="utf-8"?>
<svg version="1.1" id="Layer_1" x="0px" y="0px" width="100%" viewBox="216.586 59.455 437.468 179.118" enable-background="new 0 0 631 241" xmlns="http://www.w3.org/2000/svg" xmlns:bx="https://boxy-svg.com">
  <defs>
    <bx:grid x="23.61" y="2.213" width="101.088" height="152.786"/>
  </defs>
  <path fill="#2C83EC" opacity="1.000000" stroke="none" d="M 279.166 74.619 C 281.446 75.061 283.603 75.404 285.703 75.97 C 293.464 78.063 300.092 82.092 304.783 88.077 C 302.55 90.251 300.306 92.435 298.062 94.616 C 296.897 95.747 295.691 96.835 294.574 98.015 C 293.914 98.713 293.487 98.738 292.716 98.088 C 290.722 96.4 288.714 94.694 286.53 93.298 C 283.585 91.421 280.26 90.678 276.815 90.254 C 271.565 89.605 266.619 90.537 261.984 92.995 C 255.449 96.461 251.666 102.135 250.378 109.6 C 249.216 116.343 250.093 122.769 253.698 128.574 C 257.183 134.192 262.239 137.424 268.574 138.731 C 273.691 139.785 278.633 139.386 283.526 137.687 C 284.517 137.341 285.556 137.013 286.411 136.425 C 286.894 136.095 287.31 135.252 287.315 134.637 C 287.381 128.189 287.356 121.741 287.356 115.291 C 287.356 114.692 287.356 114.095 287.356 113.412 C 292.725 113.412 297.954 113.412 303.434 113.412 C 303.434 113.968 303.434 114.552 303.434 115.135 C 303.434 124.253 303.373 133.37 303.484 142.484 C 303.507 144.367 302.983 145.597 301.489 146.54 C 296.066 149.959 290.331 152.554 284.046 153.692 C 281.768 154.106 279.475 154.424 277.127 154.905 C 273.842 155.03 270.621 155.03 267.202 154.905 C 266.733 154.644 266.468 154.407 266.187 154.381 C 261.636 153.979 257.362 152.51 253.284 150.501 C 248.064 147.929 243.672 144.222 240.054 139.51 C 237.035 135.579 234.831 131.243 233.642 126.37 C 233.072 124.032 232.575 121.676 232.046 119.329 C 232.046 116.429 232.046 113.533 232.158 110.422 C 232.196 109.58 232.121 108.948 232.046 108.318 C 232.046 108.069 232.046 107.817 232.159 107.402 C 232.414 106.954 232.603 106.687 232.688 106.387 C 233.198 104.567 233.592 102.706 234.194 100.922 C 236.496 94.097 240.315 88.376 245.798 83.859 C 250.089 80.322 254.825 77.707 260.143 76.296 C 262.549 75.658 264.992 75.173 267.418 74.619 C 271.283 74.619 275.149 74.619 279.166 74.619 Z" style=""/>
  <path fill="#2C83EC" opacity="1.000000" stroke="none" d=" M632.000000,153.531342 C626.862427,154.000000 621.724854,154.000000 616.214661,154.000000 C616.078857,152.028534 615.961304,150.322678 615.799866,147.979248 C609.639282,153.830902 603.213684,156.179459 594.965820,154.234665 C585.813049,152.076508 581.507812,145.678589 579.217529,137.848709 C576.777832,129.508133 578.180847,121.250832 581.821411,113.092316 C585.981323,103.770058 602.597900,97.650993 612.943665,106.452980 C613.562256,106.979301 614.188904,107.496155 615.406677,108.515251 C615.754089,106.503426 616.010620,105.018097 616.359131,103.000000 C621.166138,103.000000 626.115601,103.000000 631.532532,103.000000 C632.000000,119.687561 632.000000,136.375122 632.000000,153.531342 M612.484558,137.011230 C616.532776,133.088913 617.354980,128.150925 614.785889,123.576897 C613.221619,120.791885 609.911560,118.229332 606.844055,117.230835 C602.622009,115.856537 597.692444,119.178764 596.034851,123.124084 C593.933289,128.126099 595.070251,135.044113 598.440063,137.758499 C602.420410,140.964661 607.112305,140.901382 612.484558,137.011230 z"/>
  <path fill="#FFFFFF" opacity="1.000000" stroke="none" d=" M1.000000,102.428467 C1.234072,103.890610 1.468144,105.781219 1.351108,107.835915 C1.000000,106.285645 1.000000,104.571281 1.000000,102.428467 z"/>
  <path fill="#87C232" opacity="1.000000" stroke="none" d="M 282.175 127.105 C 279.231 127.105 276.435 127.128 273.639 127.083 C 273.136 127.075 272.494 126.928 272.158 126.604 C 267.957 122.554 263.798 118.46 259.634 114.372 C 259.509 114.248 259.444 114.066 259.26 113.764 C 267.265 113.764 275.107 113.764 283.154 113.764 C 283.154 115.367 283.154 116.989 283.154 118.61 C 283.154 121.099 283.186 123.588 283.116 126.075 C 283.107 126.424 282.599 126.761 282.175 127.105 Z" style=""/>
  <path fill="#2C83EC" opacity="1.000000" stroke="none" d=" M404.179962,146.672882 C397.580414,136.341980 397.299164,125.806374 401.537445,114.954147 C406.140991,103.166801 422.131165,98.031311 433.140259,106.025978 C433.927917,106.597961 434.753937,107.117050 436.420349,108.238068 C436.420349,100.984985 436.420349,94.374023 436.420349,87.381546 C442.232513,87.381546 447.283173,87.381546 452.669800,87.381546 C452.669800,109.326500 452.669800,131.349930 452.669800,153.686676 C447.601898,153.686676 442.536743,153.686676 437.210114,153.686676 C437.100433,152.038681 436.992950,150.423889 436.844757,148.197433 C431.930298,152.595932 426.672638,155.499893 420.115387,155.012512 C413.724457,154.537506 408.475311,151.932281 404.179962,146.672882 M421.689697,139.218292 C426.703339,141.098007 431.102386,140.285233 434.461395,135.963120 C437.136719,132.520767 437.113953,124.885773 434.644470,121.223801 C430.843384,115.587212 421.686768,115.564308 417.953522,121.182053 C414.035583,127.077713 415.232849,134.269119 421.689697,139.218292 z"/>
  <path fill="#2C83EC" opacity="1.000000" stroke="none" d=" M366.000000,115.015335 C366.000000,128.142365 366.000000,140.772766 366.000000,153.699921 C360.232941,153.699921 354.826233,153.699921 349.206085,153.699921 C349.091278,151.995850 348.981689,150.369537 348.871979,148.742889 C345.838623,150.482330 343.001465,152.904633 339.737793,153.841873 C326.709106,157.583298 315.154236,150.671753 314.142517,135.621078 C313.430176,125.024590 314.004791,114.341583 314.004791,103.349625 C319.641998,103.349625 325.026611,103.349625 331.000000,103.349625 C331.000000,112.643066 330.993652,121.914520 331.002197,131.185959 C331.007843,137.303314 334.405334,140.996445 340.001526,140.998581 C345.106781,141.000549 348.956879,136.917511 348.986572,131.305939 C349.035675,122.024963 348.999908,112.743523 348.999908,103.234230 C354.758087,103.234230 360.025604,103.234230 366.000000,103.234230 C366.000000,107.001350 366.000000,110.760025 366.000000,115.015335 z"/>
  <path fill="#2C83EC" opacity="1.000000" stroke="none" d=" M508.804138,113.297058 C516.300720,124.152542 514.300598,144.212082 501.189270,151.271439 C491.906677,156.269333 482.261749,156.548477 472.978668,151.873825 C463.989929,147.347351 460.096954,139.358063 459.964264,129.310471 C459.730927,111.643791 469.835907,103.365829 485.223053,102.284065 C494.209961,101.652275 503.168762,104.258026 508.804138,113.297058 M480.600739,138.067505 C487.380951,142.806244 493.918854,138.702499 495.573273,133.704971 C496.372833,131.289764 495.997162,128.451630 495.975800,125.806419 C495.942535,121.682129 493.615204,118.461960 489.955261,117.745140 C486.951324,117.156807 482.917358,117.716240 480.442749,119.393745 C475.308044,122.874512 475.470459,132.012527 480.600739,138.067505 z"/>
  <path fill="#2C83EC" opacity="1.000000" stroke="none" d=" M520.000000,142.978577 C520.000000,129.517746 520.000000,116.554214 520.000000,103.297020 C525.435486,103.297020 530.503662,103.297020 535.791016,103.297020 C535.932739,105.167824 536.065430,106.919815 536.160217,108.170631 C540.627808,106.371780 544.884583,104.142639 549.413940,102.940598 C559.049988,100.383339 569.937805,106.728539 570.728638,116.433899 C571.729858,128.721924 570.970581,141.153412 570.970581,153.765488 C566.242310,153.765488 560.974609,153.765488 555.000000,153.765488 C555.000000,145.500824 555.000061,137.243073 555.000000,128.985336 C554.999939,120.800369 552.114685,116.237297 546.793335,116.005997 C540.527039,115.733620 536.188110,120.895844 536.032898,129.195206 C535.883484,137.186859 536.000610,145.183502 536.000610,153.588715 C530.820007,153.588715 525.763855,153.588715 520.000000,153.588715 C520.000000,150.329941 520.000000,146.902908 520.000000,142.978577 z"/>
  <path fill="#87C232" opacity="1.000000" stroke="none" d=" M391.445679,180.175171 C399.195923,184.733521 401.952789,198.939713 396.875122,207.260742 C393.264160,213.178131 383.932800,217.321030 372.957825,209.459488 C372.957825,215.948715 372.957825,222.196533 372.957825,228.715683 C369.894562,228.715683 367.179474,228.715683 364.262451,228.715683 C364.163391,227.901581 364.020081,227.270828 364.019592,226.639969 C364.007172,211.006042 364.009888,195.372086 364.009888,179.257889 C367.516785,179.709824 371.462494,176.609665 373.766876,182.056412 C379.186127,178.771957 384.963654,177.736176 391.445679,180.175171 M374.925629,190.611099 C371.864166,197.904892 374.339081,204.149872 380.693054,204.966415 C385.042328,205.525360 387.715881,203.624924 389.249298,199.413025 C390.874817,194.948166 389.776154,191.574280 386.295441,188.683090 C382.199066,185.280502 378.744171,186.990814 374.925629,190.611099 z"/>
  <path fill="#87C232" opacity="1.000000" stroke="none" d=" M475.923309,211.677292 C469.354736,214.124298 466.639709,213.446777 465.980103,210.321487 C462.104126,211.524277 458.045959,214.010757 454.303558,213.602493 C450.500824,213.187668 446.270264,210.620834 443.540375,207.748306 C438.348328,202.284988 438.843567,191.036453 443.220123,184.312119 C447.209656,178.182358 456.525208,176.705582 465.824158,182.008408 C465.824158,177.383072 465.824158,173.005280 465.824158,168.320160 C469.363617,168.320160 472.414154,168.320160 475.979950,168.320160 C475.979950,182.682755 475.979950,196.946213 475.923309,211.677292 M454.606903,187.835144 C449.200348,190.063812 449.197601,194.921478 450.393555,199.088821 C451.076324,201.467789 454.252045,203.949814 456.820587,204.768173 C460.268005,205.866531 464.169647,204.372910 464.986572,200.414780 C465.661316,197.145462 465.652924,193.155243 464.333221,190.206909 C462.820618,186.827652 458.893829,186.368927 454.606903,187.835144 z"/>
  <path fill="#87C232" opacity="1.000000" stroke="none" d=" M256.143890,194.961288 C254.732834,194.384811 253.752686,193.752975 252.689667,193.328705 C244.568085,190.087204 242.906219,187.201340 244.004883,178.109695 C244.493378,174.067444 249.683395,169.956833 255.467957,169.030685 C263.677948,167.716232 272.360748,172.502975 273.926849,179.265839 C274.098663,180.007767 273.854523,180.845978 273.790558,181.836548 C269.118073,182.008179 264.740631,183.074081 261.409698,178.189316 C259.699677,175.681580 256.368866,176.358276 254.720337,178.967575 C253.177322,181.409851 253.264343,183.994690 256.700775,185.336823 C260.791077,186.934326 264.825684,188.677261 268.861603,190.410339 C273.585358,192.438766 275.103333,196.332230 275.003845,201.149338 C274.904388,205.965637 273.043579,209.632462 268.520264,211.810928 C260.921204,215.470764 251.714676,214.081467 246.586441,207.940109 C244.986526,206.024124 244.415054,203.249374 243.088333,200.217758 C247.334564,200.217758 250.288742,200.217758 253.476395,200.217758 C253.848709,201.118530 253.992828,202.650772 254.733322,203.035660 C256.912598,204.168411 259.299408,205.333435 261.665161,205.474197 C262.683533,205.534790 265.032776,202.570724 264.731689,201.902359 C263.757782,199.740448 261.991302,197.837952 260.209625,196.179977 C259.357635,195.387146 257.783478,195.370361 256.143890,194.961288 z"/>
  <path fill="#87C232" opacity="1.000000" stroke="none" d=" M503.921478,180.615494 C510.179596,178.189514 516.008362,177.955597 520.075073,180.462814 C524.658691,179.709213 528.014404,179.157501 531.744873,178.544174 C531.744873,190.486084 531.744873,201.526840 531.744873,213.044754 C528.457458,211.994568 523.990479,215.616852 522.614929,209.729523 C514.386658,214.859329 504.496796,214.515427 500.393127,208.822189 C494.327515,200.407043 495.922119,186.687057 503.921478,180.615494 M516.955627,204.949646 C517.901001,204.312531 518.955017,203.790390 519.772217,203.017685 C522.731628,200.219315 524.038452,196.836975 522.373108,192.922775 C520.859436,189.365036 518.205017,186.765579 514.097656,187.088608 C510.167389,187.397720 507.717133,189.770096 506.604706,193.752670 C504.907104,199.830124 509.132996,204.961823 516.955627,204.949646 z"/>
  <path fill="#2C83EC" opacity="1.000000" stroke="none" d=" M392.000000,129.999985 C392.000000,138.127548 392.000000,145.755127 392.000000,153.689026 C386.613525,153.689026 381.566467,153.689026 376.257721,153.689026 C376.257721,136.969894 376.257721,120.385216 376.257721,103.399719 C381.194733,103.399719 386.247864,103.399719 392.000000,103.399719 C392.000000,112.002396 392.000000,120.751198 392.000000,129.999985 z"/>
  <path fill="#87C232" opacity="1.000000" stroke="none" d=" M431.704895,209.785553 C426.696747,212.661621 422.164764,214.927917 416.233246,213.215942 C404.073395,209.706329 398.550964,196.707413 405.243530,186.237076 C409.573273,179.463394 418.586914,176.299484 426.593262,179.287186 C433.127014,181.725357 438.095856,188.515030 436.618042,197.854462 C428.605988,197.854462 420.514008,197.854462 412.421997,197.854462 C412.063293,198.324112 411.704590,198.793777 411.345886,199.263428 C413.370758,201.423538 415.025391,204.341171 417.511993,205.556656 C420.798706,207.163223 423.299713,204.556961 426.094788,202.491440 C428.450714,200.750427 432.343201,201.088669 435.555542,200.506561 C435.884583,200.954086 436.213623,201.401611 436.542664,201.849136 C435.021912,204.407593 433.501190,206.966049 431.704895,209.785553 M425.823944,192.951447 C425.866394,191.793457 426.384796,189.962082 425.867310,189.596329 C423.835693,188.160477 421.397430,186.124268 419.259338,186.285751 C415.913177,186.538498 412.939484,188.639709 412.642151,192.993301 C416.760162,192.993301 420.857056,192.993301 425.823944,192.951447 z"/>
  <path fill="#87C232" opacity="1.000000" stroke="none" d=" M283.245422,208.740540 C276.716278,200.841171 277.199371,188.608688 284.007080,182.482361 C290.168030,176.938065 303.183441,177.340271 308.914093,183.470718 C315.531830,190.550110 315.348053,200.590424 310.153748,207.205322 C303.883698,215.190201 291.762726,216.333389 283.245422,208.740540 M303.665955,193.198532 C301.918335,188.371048 298.672119,185.976181 294.560791,187.090561 C290.350464,188.231796 288.291565,191.504089 288.035980,195.743744 C287.766418,200.215469 290.751831,204.442978 294.467865,204.944672 C298.693573,205.515152 302.033691,203.961105 303.509827,199.847336 C304.148102,198.068649 303.826538,195.945526 303.665955,193.198532 z"/>
  <path fill="#87C232" opacity="1.000000" stroke="none" d=" M338.999390,186.833359 C335.801941,186.833359 332.604523,186.833359 329.086060,186.833359 C329.086060,195.730408 329.086060,204.011505 329.086060,212.643707 C326.033936,212.643707 323.316315,212.643707 320.210388,212.643707 C320.210388,204.390564 320.210388,196.122162 320.210388,187.494873 C314.157501,187.379333 316.241913,183.187759 317.188293,180.523071 C318.162231,178.622757 319.496674,176.820374 320.044281,174.804245 C321.866882,168.094070 326.566315,165.407471 335.715576,166.384552 C335.715576,168.614578 335.715576,170.882645 335.715576,172.563705 C333.319824,174.400879 331.102142,176.101532 328.884430,177.802200 C329.141357,178.211487 329.398254,178.620789 329.655151,179.030090 C332.475708,179.030090 335.296265,179.030090 338.558411,179.523849 C338.999786,182.289520 338.999573,184.561447 338.999390,186.833359 z"/>
  <path fill="#87C232" opacity="1.000000" stroke="none" d=" M339.431213,186.905975 C338.999573,184.561447 338.999786,182.289520 338.999695,179.592133 C344.953064,178.768188 340.301178,173.684448 342.792480,171.282288 C345.076660,171.282288 347.798920,171.282288 350.868164,171.282288 C350.868164,173.728790 350.868164,175.999664 350.868164,178.790802 C353.588654,178.790802 355.980225,178.790802 358.685242,178.790802 C358.685242,181.689133 358.685242,184.076172 358.685242,186.806274 C356.340027,186.917770 354.060944,187.026123 351.046143,187.169449 C351.046143,191.705811 350.341125,196.440811 351.336456,200.786331 C351.852600,203.039780 355.378021,204.603958 357.543976,206.479538 C357.951263,206.124680 358.358582,205.769821 358.765869,205.414963 C358.765869,207.696091 358.765869,209.977234 358.765869,212.273041 C348.132782,214.810059 341.184692,211.963730 341.968597,199.399368 C342.175171,196.088333 342.140289,192.742722 341.897400,189.436432 C341.833893,188.571991 340.573639,187.795486 339.431213,186.905975 z"/>
  <path fill="#87C232" opacity="1.000000" stroke="none" d=" M482.000000,192.010101 C482.017975,187.853729 482.029449,184.195526 482.065735,180.537552 C482.068787,180.230911 482.238770,179.925919 482.424438,179.311798 C485.382385,179.311798 488.430176,179.311798 491.742004,179.311798 C491.742004,190.353485 491.742004,201.273483 491.742004,212.597595 C488.793671,212.597595 485.744659,212.597595 482.000000,212.597595 C482.000000,206.011047 482.000000,199.259689 482.000000,192.010101 z"/>
  <path fill="#2C83EC" opacity="1.000000" stroke="none" d=" M392.460571,93.971909 C388.692139,98.092430 384.433563,99.045074 379.728485,97.187630 C376.077332,95.746246 373.933594,92.954247 374.003754,88.818993 C374.091431,83.652893 377.452515,80.968681 383.769287,81.000046 C389.779053,81.029884 392.939178,83.647659 392.984528,88.713158 C392.999298,90.366295 392.833344,92.021049 392.460571,93.971909 z"/>
  <path fill="#87C232" opacity="1.000000" stroke="none" d=" M490.156189,174.374054 C487.922119,174.598022 485.633972,175.215210 484.161591,174.385223 C481.485229,172.876556 479.636627,170.417999 482.008728,167.075928 C483.609680,164.820328 489.595123,163.872055 491.236298,165.913986 C493.478821,168.704132 494.171448,171.708221 490.156189,174.374054 z"/>
</svg>